Coordinates
version=1
nRows=8
nColumns=63
inDegrees=yes

Units are S.I. units (second, meters, Newtons, ...)
If the header above contains a line with 'inDegrees', this indicates whether rotational values are in degrees (yes) or radians (no).

endheader
time	pelvis_tilt	pelvis_list	pelvis_rotation	pelvis_tx	pelvis_ty	pelvis_tz	hip_flexion_r	hip_adduction_r	hip_rotation_r	knee_angle_r	knee_angle_r_beta	ankle_angle_r	subtalar_angle_r	mtp_angle_r	hip_flexion_l	hip_adduction_l	hip_rotation_l	knee_angle_l	knee_angle_l_beta	ankle_angle_l	subtalar_angle_l	mtp_angle_l	L5_S1_Flex_Ext	L5_S1_Lat_Bending	L5_S1_axial_rotation	L4_L5_Flex_Ext	L4_L5_Lat_Bending	L4_L5_axial_rotation	L3_L4_Flex_Ext	L3_L4_Lat_Bending	L3_L4_axial_rotation	L2_L3_Flex_Ext	L2_L3_Lat_Bending	L2_L3_axial_rotation	L1_L2_Flex_Ext	L1_L2_Lat_Bending	L1_L2_axial_rotation	L1_T12_Flex_Ext	L1_T12_Lat_Bending	L1_T12_axial_rotation	Abs_r3	Abs_r2	Abs_r1	Abs_t1	Abs_t2	neck_flexion	neck_bending	neck_rotation	arm_flex_r	arm_add_r	arm_rot_r	elbow_flex_r	pro_sup_r	wrist_flex_r	wrist_dev_r	arm_flex_l	arm_add_l	arm_rot_l	elbow_flex_l	pro_sup_l	wrist_flex_l	wrist_dev_l
0.000000	0.399608	-13.823620	97.330652	0.207006	0.457432	0.676117	-0.261080	0.583611	-0.041843	3.942675	0.068813	8.754531	-6.856142	0.000000	-2.963737	1.952093	-20.555596	0.452841	0.007904	15.433588	12.864332	0.000000	0.274557	-0.386291	1.342295	0.509879	-0.513767	1.426188	0.451069	-0.939227	1.426188	0.313791	-0.939227	1.174508	0.254953	-0.787724	1.090614	0.156882	-0.598364	1.006721	1.961130	-4.369798	7.465440	0.000000	0.000000	28.185643	3.947718	-16.236434	-0.752169	-22.174948	10.616804	95.711764	80.967459	-9.530236	18.772479	1.608728	-15.833330	4.960746	29.261711	85.474272	-9.247279	14.297216
0.016949	0.195693	-13.979401	95.942817	0.207653	0.456491	0.677218	0.231258	0.018478	-0.376813	4.875764	0.085098	9.382364	-4.756828	0.000000	-2.808237	2.423822	-20.901045	0.455550	0.007951	15.680697	11.745115	0.000000	0.288729	-0.364595	1.592961	0.536199	-0.484911	1.692521	0.474353	-0.886475	1.692521	0.329989	-0.886475	1.393841	0.268114	-0.743481	1.294281	0.164980	-0.564757	1.194721	2.062364	-4.124366	8.859571	0.000000	0.000000	28.210954	3.050864	-15.298235	-2.130312	-21.800557	7.033588	91.323825	84.699828	-11.734474	16.303808	4.285111	-14.700960	30.528166	23.959064	71.722904	-7.813698	9.964590
0.033898	0.069333	-14.061505	94.962330	0.208009	0.455649	0.677942	0.512111	-0.379884	-0.840504	5.545598	0.096789	9.784668	-3.095076	0.000000	-2.735197	2.752453	-20.818862	0.453273	0.007911	15.861426	10.521119	0.000000	0.297873	-0.336684	1.770103	0.553180	-0.447789	1.880735	0.489376	-0.818612	1.880735	0.340439	-0.818612	1.548840	0.276605	-0.686565	1.438209	0.170205	-0.521523	1.327577	2.127678	-3.808631	9.844783	0.000000	0.000000	28.233436	2.236879	-14.334829	-3.105045	-21.355854	4.568011	86.485881	86.971864	-13.495134	14.095549	6.527423	-13.589637	53.934139	19.347931	59.709161	-6.655170	6.270601
0.050847	0.012379	-14.079008	94.349064	0.208113	0.454900	0.678326	0.604985	-0.627464	-1.416102	5.977052	0.104319	9.980557	-1.833055	0.000000	-2.733927	2.951765	-20.363187	0.446651	0.007796	15.982271	9.220377	0.000000	0.302656	-0.303511	1.880988	0.562062	-0.403670	1.998550	0.497233	-0.737957	1.998550	0.345905	-0.737957	1.645865	0.281046	-0.618920	1.528303	0.172937	-0.470139	1.410741	2.161838	-3.433379	10.461491	0.000000	0.000000	28.253208	1.501575	-13.359448	-3.716510	-20.853979	3.148240	81.285472	87.912598	-14.847915	12.142902	8.372267	-12.507015	75.251970	15.385224	49.325362	-5.745688	3.169550
0.067797	0.016686	-14.040984	94.062890	0.208000	0.454239	0.678410	0.533387	-0.740247	-2.086790	6.195004	0.108123	9.989140	-0.932933	0.000000	-2.793738	3.035537	-19.588158	0.436327	0.007615	16.049724	7.870922	0.000000	0.303743	-0.266031	1.932883	0.564082	-0.353821	2.053688	0.499020	-0.646828	2.053688	0.347148	-0.646828	1.691272	0.282056	-0.542491	1.570467	0.173559	-0.412082	1.449662	2.169608	-3.009398	10.750113	0.000000	0.000000	28.270389	0.840761	-12.385319	-4.004852	-20.308072	2.702445	75.810140	87.651063	-15.828514	10.441068	9.856245	-11.460746	94.554962	12.027856	40.463827	-5.059244	0.615739
0.084746	0.074107	-13.956511	94.063680	0.207706	0.453659	0.678233	0.320822	-0.734222	-2.835754	6.224331	0.108635	9.829531	-0.356880	0.000000	-2.903942	3.017549	-18.547914	0.422942	0.007382	16.070277	6.500788	0.000000	0.301804	-0.225197	1.933054	0.560479	-0.299512	2.053869	0.495833	-0.547544	2.053869	0.344931	-0.547544	1.691422	0.280255	-0.459222	1.570606	0.172451	-0.348830	1.449790	2.155753	-2.547473	10.751064	0.000000	0.000000	28.285096	0.250250	-11.425674	-4.010213	-19.731272	3.158793	70.147426	86.316289	-16.472629	8.985247	11.015961	-10.458483	111.916422	9.232739	33.016876	-4.569831	-1.436532
0.101695	0.176495	-13.834662	94.311306	0.207268	0.453153	0.677833	-0.009203	-0.625375	-3.646178	6.089907	0.106289	9.520841	-0.067064	0.000000	-3.053850	2.911581	-17.296592	0.407139	0.007106	16.050425	5.138009	0.000000	0.297503	-0.181962	1.888768	0.552494	-0.242010	2.006816	0.488768	-0.442423	2.006816	0.340017	-0.442423	1.652672	0.276262	-0.371057	1.534624	0.169993	-0.281859	1.416576	2.125037	-2.058393	10.504760	0.000000	0.000000	28.297451	-0.274148	-10.493742	-3.772737	-19.136721	4.445452	64.384869	84.037310	-16.815956	7.770640	11.888017	-9.507879	127.409653	6.956784	26.876830	-4.251443	-3.032961
0.118644	0.315703	-13.684512	94.765639	0.206722	0.452717	0.677249	-0.433184	-0.429693	-4.501248	5.816611	0.101519	9.082182	-0.025655	0.000000	-3.232772	2.731410	-15.888332	0.389559	0.006799	15.996661	3.810618	0.000000	0.291510	-0.137280	1.807292	0.541363	-0.182583	1.920248	0.478921	-0.333784	1.920248	0.333167	-0.333784	1.581381	0.270696	-0.279942	1.468425	0.166569	-0.212647	1.355469	2.082225	-1.552943	10.051618	0.000000	0.000000	28.307571	-0.736621	-9.602752	-3.332567	-18.537557	6.490591	58.610012	80.943156	-16.894194	6.792446	12.509017	-8.616588	141.107961	5.156905	21.936007	-4.078071	-4.219248
